name C:/MyDriveSym/Projects/mobilecap/Data\Session20210827_0002\mocap\ForceDataProcessed\walking1_forces.mot
datacolumns 19
datarows 24
range 0.00000000 0.01150000
endheader 
time	R_ground_force_vx	R_ground_force_vy	R_ground_force_vz	R_ground_force_px	R_ground_force_py	R_ground_force_pz	R_ground_torque_x	R_ground_torque_y	R_ground_torque_z	L_ground_force_vx	L_ground_force_vy	L_ground_force_vz	L_ground_force_px	L_ground_force_py	L_ground_force_pz	L_ground_torque_x	L_ground_torque_y	L_ground_torque_z	
          0.00000000	         16.17442100	        151.71049900	          6.95704500	          0.22083300	          0.00600000	         -0.17446500	          0.00000000	          0.01617900	          0.00000000	          0.00000000	          0.00000000	          0.00000000	          0.77220100	          0.00000000	         -0.24861500	          0.00000000	          0.00000000	          0.00000000	
          0.00050000	         15.75050500	        153.17714100	          6.97548800	          0.22083300	          0.00600000	         -0.17446500	          0.00000000	          0.01626900	          0.00000000	          0.00000000	          0.00000000	          0.00000000	          0.77220100	          0.00000000	         -0.24861500	          0.00000000	          0.00000000	          0.00000000	
          0.00100000	         15.32365100	        154.65491900	          6.99327300	          0.22083300	          0.00600000	         -0.17446500	          0.00000000	          0.01638500	          0.00000000	          0.00000000	          0.00000000	          0.00000000	          0.77220100	          0.00000000	         -0.24861500	          0.00000000	          0.00000000	          0.00000000	
          0.00150000	         14.89387700	        156.14379800	          7.01038400	          0.22083300	          0.00600000	         -0.17446500	          0.00000000	          0.01652800	          0.00000000	          0.00000000	          0.00000000	          0.00000000	          0.77220100	          0.00000000	         -0.24861500	          0.00000000	          0.00000000	          0.00000000	
          0.00200000	         14.46119800	        157.64374300	          7.02680800	          0.22111700	          0.00600000	         -0.17449400	          0.00000000	          0.01669700	          0.00000000	          0.00000000	          0.00000000	          0.00000000	          0.77220100	          0.00000000	         -0.24861500	          0.00000000	          0.00000000	          0.00000000	
          0.00250000	         14.02563200	        159.15471700	          7.04253100	          0.22139900	          0.00600000	         -0.17452300	          0.00000000	          0.01689000	          0.00000000	          0.00000000	          0.00000000	          0.00000000	          0.77220100	          0.00000000	         -0.24861500	          0.00000000	          0.00000000	          0.00000000	
          0.00300000	         13.58719900	        160.67668100	          7.05753600	          0.22167900	          0.00600000	         -0.17455000	          0.00000000	          0.01710700	          0.00000000	          0.00000000	          0.00000000	          0.00000000	          0.77220100	          0.00000000	         -0.24861500	          0.00000000	          0.00000000	          0.00000000	
          0.00350000	         13.14591900	        162.20959500	          7.07181000	          0.22195900	          0.00600000	         -0.17457700	          0.00000000	          0.01734700	          0.00000000	          0.00000000	          0.00000000	          0.00000000	          0.77220100	          0.00000000	         -0.24861500	          0.00000000	          0.00000000	          0.00000000	
          0.00400000	         12.70181400	        163.75341800	          7.08533900	          0.22223800	          0.00600000	         -0.17460300	          0.00000000	          0.01760900	          0.00000000	          0.00000000	          0.00000000	          0.00000000	          0.77220100	          0.00000000	         -0.24861500	          0.00000000	          0.00000000	          0.00000000	
          0.00450000	         12.25490400	        165.30810600	          7.09810600	          0.22251500	          0.00600000	         -0.17462800	          0.00000000	          0.01789200	          0.00000000	          0.00000000	          0.00000000	          0.00000000	          0.77220100	          0.00000000	         -0.24861500	          0.00000000	          0.00000000	          0.00000000	
          0.00500000	         11.80521500	        166.87361300	          7.11009800	          0.22279100	          0.00600000	         -0.17465200	          0.00000000	          0.01819500	          0.00000000	          0.00000000	          0.00000000	          0.00000000	          0.77220100	          0.00000000	         -0.24861500	          0.00000000	          0.00000000	          0.00000000	
          0.00550000	         11.35277100	        168.44989400	          7.12129900	          0.22306600	          0.00600000	         -0.17467600	          0.00000000	          0.01851800	          0.00000000	          0.00000000	          0.00000000	          0.00000000	          0.77220100	          0.00000000	         -0.24861500	          0.00000000	          0.00000000	          0.00000000	
          0.00600000	         10.89759700	        170.03690100	          7.13169500	          0.22333900	          0.00600000	         -0.17469900	          0.00000000	          0.01885900	          0.00000000	          0.00000000	          0.00000000	          0.00000000	          0.77220100	          0.00000000	         -0.24861500	          0.00000000	          0.00000000	          0.00000000	
          0.00650000	         10.43972100	        171.63458400	          7.14127000	          0.22361200	          0.00600000	         -0.17472100	          0.00000000	          0.01921800	          0.00000000	          0.00000000	          0.00000000	          0.00000000	          0.77220100	          0.00000000	         -0.24861500	          0.00000000	          0.00000000	          0.00000000	
          0.00700000	          9.97917100	        173.24289300	          7.15001100	          0.22388300	          0.00600000	         -0.17474200	          0.00000000	          0.01959400	          0.00000000	          0.00000000	          0.00000000	          0.00000000	          0.77220100	          0.00000000	         -0.24861500	          0.00000000	          0.00000000	          0.00000000	
          0.00750000	          9.51597700	        174.86177400	          7.15790100	          0.22415400	          0.00600000	         -0.17476300	          0.00000000	          0.01998500	          0.00000000	          0.00000000	          0.00000000	          0.00000000	          0.77220100	          0.00000000	         -0.24861500	          0.00000000	          0.00000000	          0.00000000	
          0.00800000	          9.05016800	        176.49117500	          7.16492600	          0.22442300	          0.00600000	         -0.17478200	          0.00000000	          0.02039200	          0.00000000	          0.00000000	          0.00000000	          0.00000000	          0.77220100	          0.00000000	         -0.24861500	          0.00000000	          0.00000000	          0.00000000	
          0.00850000	          8.58177600	        178.13103900	          7.17107100	          0.22469100	          0.00600000	         -0.17480100	          0.00000000	          0.02081400	          0.00000000	          0.00000000	          0.00000000	          0.00000000	          0.77220100	          0.00000000	         -0.24861500	          0.00000000	          0.00000000	          0.00000000	
          0.00900000	          8.11083300	        179.78131100	          7.17632100	          0.22495700	          0.00600000	         -0.17482000	          0.00000000	          0.02124900	          0.00000000	          0.00000000	          0.00000000	          0.00000000	          0.77220100	          0.00000000	         -0.24861500	          0.00000000	          0.00000000	          0.00000000	
          0.00950000	          7.63737400	        181.44193100	          7.18066100	          0.22522300	          0.00600000	         -0.17483800	          0.00000000	          0.02169700	          0.00000000	          0.00000000	          0.00000000	          0.00000000	          0.77220100	          0.00000000	         -0.24861500	          0.00000000	          0.00000000	          0.00000000	
          0.01000000	          7.16143200	        183.11284000	          7.18407600	          0.22548800	          0.00600000	         -0.17485500	          0.00000000	          0.02215700	          0.00000000	          0.00000000	          0.00000000	          0.00000000	          0.77220100	          0.00000000	         -0.24861500	          0.00000000	          0.00000000	          0.00000000	
          0.01050000	          6.68304300	        184.79397700	          7.18655200	          0.22575100	          0.00600000	         -0.17487100	          0.00000000	          0.02262800	          0.00000000	          0.00000000	          0.00000000	          0.00000000	          0.77220100	          0.00000000	         -0.24861500	          0.00000000	          0.00000000	          0.00000000	
          0.01100000	          6.20224300	        186.48527800	          7.18807200	          0.22601400	          0.00600000	         -0.17488600	          0.00000000	          0.02311000	          0.00000000	          0.00000000	          0.00000000	          0.00000000	          0.77220100	          0.00000000	         -0.24861500	          0.00000000	          0.00000000	          0.00000000	
          0.01150000	          5.71906900	        188.18667700	          7.18862300	          0.22627500	          0.00600000	         -0.17490100	          0.00000000	          0.02360100	          0.00000000	          0.00000000	          0.00000000	          0.00000000	          0.77220100	          0.00000000	         -0.24861500	          0.00000000	          0.00000000	          0.00000000	
